<svg xmlns="http://www.w3.org/2000/svg" xmlns:xlink="http://www.w3.org/1999/xlink" width="336" zoomAndPan="magnify" viewBox="0 0 252 143.999998" height="192" preserveAspectRatio="xMidYMid meet" version="1.0"><defs><g/><clipPath id="d9586c66e2"><path d="M 0.71875 8.167969 L 38 8.167969 L 38 63.304688 L 0.71875 63.304688 Z M 0.71875 8.167969 " clip-rule="nonzero"/></clipPath><clipPath id="3b98213ca1"><path d="M 31 8.167969 L 61.5 8.167969 L 61.5 63.304688 L 31 63.304688 Z M 31 8.167969 " clip-rule="nonzero"/></clipPath><clipPath id="9cf1e2fd39"><path d="M 72 0.878906 L 191.761719 0.878906 L 191.761719 52 L 72 52 Z M 72 0.878906 " clip-rule="nonzero"/></clipPath><clipPath id="3b0fd66bf9"><rect x="0" width="120" y="0" height="52"/></clipPath><clipPath id="c3581a0df7"><path d="M 73 49 L 191.761719 49 L 191.761719 66.640625 L 73 66.640625 Z M 73 49 " clip-rule="nonzero"/></clipPath><clipPath id="b22f8d6c0d"><rect x="0" width="119" y="0" height="18"/></clipPath><clipPath id="ebd1fb74ac"><rect x="0" width="192" y="0" height="67"/></clipPath></defs><rect x="-25.2" width="302.4" fill="#ffffff" y="-14.4" height="172.799997" fill-opacity="1"/><rect x="-25.2" width="302.4" fill="#1f1f1e" y="-14.4" height="172.799997" fill-opacity="1"/><g transform="matrix(1, 0, 0, 1, 30, 38)"><g clip-path="url(#ebd1fb74ac)"><g clip-path="url(#d9586c66e2)"><path fill="#f0f0f0" d="M 0.800781 8.191406 L 7.183594 8.175781 L 7.1875 34.367188 C 14.636719 25.957031 21.902344 16.753906 29.269531 8.191406 C 31.96875 8.136719 34.859375 8.191406 37.574219 8.195312 L 14.359375 35.71875 L 26.769531 50.429688 C 30.308594 54.613281 33.980469 59.167969 37.613281 63.230469 L 29.164062 63.238281 L 14.699219 46.042969 C 12.804688 43.785156 9.101562 39.09375 7.171875 37.265625 C 7.28125 45.835938 7.191406 54.636719 7.195312 63.222656 L 0.789062 63.214844 Z M 0.800781 8.191406 " fill-opacity="1" fill-rule="nonzero"/></g><g clip-path="url(#3b98213ca1)"><path fill="#f0f0f0" d="M 54.707031 8.1875 L 61.136719 8.191406 C 60.949219 14.621094 61.101562 21.875 61.101562 28.355469 L 61.136719 63.222656 C 58.992188 63.195312 56.847656 63.203125 54.707031 63.242188 L 54.695312 38.859375 L 37.640625 38.863281 L 37.644531 55.4375 L 37.640625 59.507812 C 35.523438 56.960938 33.261719 54.320312 31.234375 51.722656 L 31.21875 19.667969 C 33.046875 17.332031 35.683594 14.339844 37.640625 12.089844 L 37.644531 32.480469 L 54.6875 32.476562 Z M 54.707031 8.1875 " fill-opacity="1" fill-rule="nonzero"/></g><g clip-path="url(#9cf1e2fd39)"><g transform="matrix(1, 0, 0, 1, 72, -0.000000000000014211)"><g clip-path="url(#3b0fd66bf9)"><g fill="#f0f0f0" fill-opacity="1"><g transform="translate(0.614352, 24.541987)"><g><path d="M 1.65625 -16.5 L 5.1875 -16.5 L 5.1875 -9.203125 L 11.078125 -16.5 L 15.203125 -16.5 L 8.609375 -8.375 L 15.5625 0 L 11.4375 0 L 5.1875 -7.546875 L 5.1875 0 L 1.65625 0 Z M 1.65625 -16.5 "/></g></g></g><g fill="#f0f0f0" fill-opacity="1"><g transform="translate(16.881933, 24.541987)"><g><path d="M 5.78125 -16.5 L 10.140625 -16.5 L 16.03125 0 L 12.375 0 L 11.3125 -3.0625 L 4.59375 -3.0625 L 3.53125 0 L -0.125 0 Z M 10.15625 -6.25 L 8.015625 -12.5 L 7.90625 -12.5 L 5.75 -6.25 Z M 10.15625 -6.25 "/></g></g></g><g fill="#f0f0f0" fill-opacity="1"><g transform="translate(32.324344, 24.541987)"><g><path d="M 5.3125 -13.328125 L 0.359375 -13.328125 L 0.359375 -16.5 L 13.796875 -16.5 L 13.796875 -13.328125 L 8.84375 -13.328125 L 8.84375 0 L 5.3125 0 Z M 5.3125 -13.328125 "/></g></g></g><g fill="#f0f0f0" fill-opacity="1"><g transform="translate(47.648877, 24.541987)"><g><path d="M 1.65625 -16.5 L 8.71875 -16.5 C 9.539062 -16.5 10.289062 -16.367188 10.96875 -16.109375 C 11.65625 -15.859375 12.242188 -15.492188 12.734375 -15.015625 C 13.222656 -14.546875 13.597656 -13.976562 13.859375 -13.3125 C 14.128906 -12.644531 14.265625 -11.898438 14.265625 -11.078125 C 14.265625 -10.046875 14.082031 -9.191406 13.71875 -8.515625 C 13.363281 -7.847656 12.972656 -7.320312 12.546875 -6.9375 C 12.046875 -6.476562 11.476562 -6.128906 10.84375 -5.890625 L 14.859375 0 L 10.84375 0 L 7.078125 -5.65625 L 5.1875 -5.65625 L 5.1875 0 L 1.65625 0 Z M 8.484375 -8.84375 C 9.148438 -8.84375 9.691406 -9.035156 10.109375 -9.421875 C 10.523438 -9.816406 10.734375 -10.367188 10.734375 -11.078125 C 10.734375 -11.785156 10.523438 -12.335938 10.109375 -12.734375 C 9.691406 -13.128906 9.148438 -13.328125 8.484375 -13.328125 L 5.1875 -13.328125 L 5.1875 -8.84375 Z M 8.484375 -8.84375 "/></g></g></g><g fill="#f0f0f0" fill-opacity="1"><g transform="translate(64.270105, 24.541987)"><g><path d="M 1.65625 -16.5 L 5.1875 -16.5 L 5.1875 0 L 1.65625 0 Z M 1.65625 -16.5 "/></g></g></g><g fill="#f0f0f0" fill-opacity="1"><g transform="translate(72.286029, 24.541987)"><g><path d="M 1.65625 -16.5 L 6.25 -16.5 L 12.5 -5.1875 L 12.609375 -5.1875 L 12.609375 -16.5 L 16.15625 -16.5 L 16.15625 0 L 11.546875 0 L 5.3125 -11.3125 L 5.1875 -11.3125 L 5.1875 0 L 1.65625 0 Z M 1.65625 -16.5 "/></g></g></g><g fill="#f0f0f0" fill-opacity="1"><g transform="translate(0.614352, 45.707474)"><g><path d="M 1.65625 -16.5 L 5.1875 -16.5 L 5.1875 -9.90625 L 11.796875 -9.90625 L 11.796875 -16.5 L 15.328125 -16.5 L 15.328125 0 L 11.796875 0 L 11.796875 -6.71875 L 5.1875 -6.71875 L 5.1875 0 L 1.65625 0 Z M 1.65625 -16.5 "/></g></g></g><g fill="#f0f0f0" fill-opacity="1"><g transform="translate(18.768025, 45.707474)"><g><path d="M 5.78125 -16.5 L 10.140625 -16.5 L 16.03125 0 L 12.375 0 L 11.3125 -3.0625 L 4.59375 -3.0625 L 3.53125 0 L -0.125 0 Z M 10.15625 -6.25 L 8.015625 -12.5 L 7.90625 -12.5 L 5.75 -6.25 Z M 10.15625 -6.25 "/></g></g></g><g fill="#f0f0f0" fill-opacity="1"><g transform="translate(35.860775, 45.707474)"><g><path d="M 1.65625 -16.5 L 6.84375 -16.5 L 10.734375 -5.0625 L 10.84375 -5.0625 L 14.734375 -16.5 L 19.921875 -16.5 L 19.921875 0 L 16.390625 0 L 16.390625 -11.671875 L 16.265625 -11.671875 L 12.265625 0 L 9.3125 0 L 5.3125 -11.671875 L 5.1875 -11.671875 L 5.1875 0 L 1.65625 0 Z M 1.65625 -16.5 "/></g></g></g><g fill="#f0f0f0" fill-opacity="1"><g transform="translate(58.611794, 45.707474)"><g><path d="M 1.65625 -16.5 L 6.84375 -16.5 L 10.734375 -5.0625 L 10.84375 -5.0625 L 14.734375 -16.5 L 19.921875 -16.5 L 19.921875 0 L 16.390625 0 L 16.390625 -11.671875 L 16.265625 -11.671875 L 12.265625 0 L 9.3125 0 L 5.3125 -11.671875 L 5.1875 -11.671875 L 5.1875 0 L 1.65625 0 Z M 1.65625 -16.5 "/></g></g></g><g fill="#f0f0f0" fill-opacity="1"><g transform="translate(81.362822, 45.707474)"><g><path d="M 8.71875 0.234375 C 7.539062 0.234375 6.472656 0.046875 5.515625 -0.328125 C 4.554688 -0.703125 3.738281 -1.25 3.0625 -1.96875 C 2.382812 -2.695312 1.859375 -3.585938 1.484375 -4.640625 C 1.117188 -5.691406 0.9375 -6.894531 0.9375 -8.25 C 0.9375 -9.601562 1.117188 -10.804688 1.484375 -11.859375 C 1.859375 -12.910156 2.382812 -13.796875 3.0625 -14.515625 C 3.738281 -15.242188 4.554688 -15.796875 5.515625 -16.171875 C 6.472656 -16.546875 7.539062 -16.734375 8.71875 -16.734375 C 9.90625 -16.734375 10.976562 -16.546875 11.9375 -16.171875 C 12.894531 -15.796875 13.707031 -15.242188 14.375 -14.515625 C 15.050781 -13.796875 15.570312 -12.910156 15.9375 -11.859375 C 16.3125 -10.804688 16.5 -9.601562 16.5 -8.25 C 16.5 -6.894531 16.3125 -5.691406 15.9375 -4.640625 C 15.570312 -3.585938 15.050781 -2.695312 14.375 -1.96875 C 13.707031 -1.25 12.894531 -0.703125 11.9375 -0.328125 C 10.976562 0.046875 9.90625 0.234375 8.71875 0.234375 Z M 8.71875 -2.953125 C 9.332031 -2.953125 9.898438 -3.0625 10.421875 -3.28125 C 10.941406 -3.5 11.390625 -3.828125 11.765625 -4.265625 C 12.140625 -4.703125 12.429688 -5.253906 12.640625 -5.921875 C 12.859375 -6.597656 12.96875 -7.375 12.96875 -8.25 C 12.96875 -9.132812 12.859375 -9.910156 12.640625 -10.578125 C 12.429688 -11.242188 12.140625 -11.796875 11.765625 -12.234375 C 11.390625 -12.671875 10.941406 -13 10.421875 -13.21875 C 9.898438 -13.445312 9.332031 -13.5625 8.71875 -13.5625 C 8.101562 -13.5625 7.535156 -13.445312 7.015625 -13.21875 C 6.503906 -13 6.054688 -12.671875 5.671875 -12.234375 C 5.296875 -11.796875 5.003906 -11.242188 4.796875 -10.578125 C 4.585938 -9.910156 4.484375 -9.132812 4.484375 -8.25 C 4.484375 -7.375 4.585938 -6.597656 4.796875 -5.921875 C 5.003906 -5.253906 5.296875 -4.703125 5.671875 -4.265625 C 6.054688 -3.828125 6.503906 -3.5 7.015625 -3.28125 C 7.535156 -3.0625 8.101562 -2.953125 8.71875 -2.953125 Z M 8.71875 -2.953125 "/></g></g></g><g fill="#f0f0f0" fill-opacity="1"><g transform="translate(99.988017, 45.707474)"><g><path d="M 1.65625 -16.5 L 6.25 -16.5 L 12.5 -5.1875 L 12.609375 -5.1875 L 12.609375 -16.5 L 16.15625 -16.5 L 16.15625 0 L 11.546875 0 L 5.3125 -11.3125 L 5.1875 -11.3125 L 5.1875 0 L 1.65625 0 Z M 1.65625 -16.5 "/></g></g></g></g></g></g><g clip-path="url(#c3581a0df7)"><g transform="matrix(1, 0, 0, 1, 73, 49)"><g clip-path="url(#b22f8d6c0d)"><g fill="#f0f0f0" fill-opacity="1"><g transform="translate(1.137408, 14.219189)"><g><path d="M 3.546875 -9.34375 L 4.8125 -9.34375 L 8.34375 0 L 7.21875 0 L 6.34375 -2.34375 L 2 -2.34375 L 1.140625 0 L 0 0 Z M 5.9375 -3.34375 L 4.203125 -8.078125 L 4.140625 -8.078125 L 2.40625 -3.34375 Z M 5.9375 -3.34375 "/></g></g></g><g fill="#f0f0f0" fill-opacity="1"><g transform="translate(12.152025, 14.219189)"><g><path d="M 1.140625 -9.34375 L 4.75 -9.34375 C 5.195312 -9.34375 5.597656 -9.273438 5.953125 -9.140625 C 6.316406 -9.015625 6.625 -8.828125 6.875 -8.578125 C 7.132812 -8.328125 7.332031 -8.03125 7.46875 -7.6875 C 7.613281 -7.34375 7.6875 -6.960938 7.6875 -6.546875 C 7.6875 -6.078125 7.609375 -5.675781 7.453125 -5.34375 C 7.296875 -5.007812 7.09375 -4.726562 6.84375 -4.5 C 6.59375 -4.269531 6.316406 -4.09375 6.015625 -3.96875 C 5.722656 -3.851562 5.429688 -3.773438 5.140625 -3.734375 L 7.8125 0 L 6.546875 0 L 3.875 -3.734375 L 2.265625 -3.734375 L 2.265625 0 L 1.140625 0 Z M 4.671875 -4.75 C 5.273438 -4.75 5.738281 -4.914062 6.0625 -5.25 C 6.382812 -5.582031 6.546875 -6.015625 6.546875 -6.546875 C 6.546875 -7.078125 6.382812 -7.507812 6.0625 -7.84375 C 5.738281 -8.175781 5.273438 -8.34375 4.671875 -8.34375 L 2.265625 -8.34375 L 2.265625 -4.75 Z M 4.671875 -4.75 "/></g></g></g><g fill="#f0f0f0" fill-opacity="1"><g transform="translate(23.300148, 14.219189)"><g><path d="M 4.875 0.140625 C 4.257812 0.140625 3.691406 0.0351562 3.171875 -0.171875 C 2.660156 -0.378906 2.21875 -0.6875 1.84375 -1.09375 C 1.46875 -1.5 1.175781 -2 0.96875 -2.59375 C 0.769531 -3.195312 0.671875 -3.890625 0.671875 -4.671875 C 0.671875 -5.453125 0.769531 -6.144531 0.96875 -6.75 C 1.175781 -7.351562 1.46875 -7.859375 1.84375 -8.265625 C 2.21875 -8.671875 2.660156 -8.972656 3.171875 -9.171875 C 3.691406 -9.378906 4.257812 -9.484375 4.875 -9.484375 C 5.78125 -9.484375 6.554688 -9.265625 7.203125 -8.828125 C 7.847656 -8.398438 8.34375 -7.75 8.6875 -6.875 L 7.484375 -6.875 C 7.210938 -7.445312 6.859375 -7.859375 6.421875 -8.109375 C 5.992188 -8.359375 5.476562 -8.484375 4.875 -8.484375 C 4.414062 -8.484375 4 -8.398438 3.625 -8.234375 C 3.257812 -8.066406 2.9375 -7.820312 2.65625 -7.5 C 2.382812 -7.1875 2.171875 -6.789062 2.015625 -6.3125 C 1.867188 -5.832031 1.796875 -5.285156 1.796875 -4.671875 C 1.796875 -4.054688 1.867188 -3.507812 2.015625 -3.03125 C 2.171875 -2.5625 2.382812 -2.164062 2.65625 -1.84375 C 2.9375 -1.519531 3.257812 -1.273438 3.625 -1.109375 C 4 -0.953125 4.414062 -0.875 4.875 -0.875 C 5.476562 -0.875 5.992188 -0.992188 6.421875 -1.234375 C 6.859375 -1.484375 7.210938 -1.894531 7.484375 -2.46875 L 8.6875 -2.46875 C 8.34375 -1.59375 7.847656 -0.9375 7.203125 -0.5 C 6.554688 -0.0703125 5.78125 0.140625 4.875 0.140625 Z M 4.875 0.140625 "/></g></g></g><g fill="#f0f0f0" fill-opacity="1"><g transform="translate(35.182554, 14.219189)"><g><path d="M 1.140625 -9.34375 L 2.265625 -9.34375 L 2.265625 -5.203125 L 7.21875 -5.203125 L 7.21875 -9.34375 L 8.34375 -9.34375 L 8.34375 0 L 7.21875 0 L 7.21875 -4.203125 L 2.265625 -4.203125 L 2.265625 0 L 1.140625 0 Z M 1.140625 -9.34375 "/></g></g></g><g fill="#f0f0f0" fill-opacity="1"><g transform="translate(47.331971, 14.219189)"><g><path d="M 1.140625 -9.34375 L 2.265625 -9.34375 L 2.265625 0 L 1.140625 0 Z M 1.140625 -9.34375 "/></g></g></g><g fill="#f0f0f0" fill-opacity="1"><g transform="translate(53.406864, 14.219189)"><g><path d="M 3.34375 -8.34375 L 0.328125 -8.34375 L 0.328125 -9.34375 L 7.484375 -9.34375 L 7.484375 -8.34375 L 4.46875 -8.34375 L 4.46875 0 L 3.34375 0 Z M 3.34375 -8.34375 "/></g></g></g><g fill="#f0f0f0" fill-opacity="1"><g transform="translate(63.887458, 14.219189)"><g><path d="M 1.140625 -9.34375 L 7.015625 -9.34375 L 7.015625 -8.34375 L 2.265625 -8.34375 L 2.265625 -5.203125 L 6.75 -5.203125 L 6.75 -4.203125 L 2.265625 -4.203125 L 2.265625 -1 L 7.140625 -1 L 7.140625 0 L 1.140625 0 Z M 1.140625 -9.34375 "/></g></g></g><g fill="#f0f0f0" fill-opacity="1"><g transform="translate(74.434799, 14.219189)"><g><path d="M 1.140625 -9.34375 L 2.265625 -9.34375 L 2.265625 -4.875 L 6.40625 -9.34375 L 7.75 -9.34375 L 3.46875 -4.75 L 7.953125 0 L 6.609375 0 L 2.265625 -4.609375 L 2.265625 0 L 1.140625 0 Z M 1.140625 -9.34375 "/></g></g></g><g fill="#f0f0f0" fill-opacity="1"><g transform="translate(84.915397, 14.219189)"><g><path d="M 3.34375 -8.34375 L 0.328125 -8.34375 L 0.328125 -9.34375 L 7.484375 -9.34375 L 7.484375 -8.34375 L 4.46875 -8.34375 L 4.46875 0 L 3.34375 0 Z M 3.34375 -8.34375 "/></g></g></g><g fill="#f0f0f0" fill-opacity="1"><g transform="translate(95.395987, 14.219189)"><g><path d="M 4.671875 0.140625 C 4.117188 0.140625 3.617188 0.0507812 3.171875 -0.125 C 2.734375 -0.300781 2.359375 -0.554688 2.046875 -0.890625 C 1.734375 -1.234375 1.488281 -1.65625 1.3125 -2.15625 C 1.144531 -2.65625 1.0625 -3.226562 1.0625 -3.875 L 1.0625 -9.34375 L 2.203125 -9.34375 L 2.203125 -3.875 C 2.203125 -2.90625 2.425781 -2.160156 2.875 -1.640625 C 3.332031 -1.128906 3.929688 -0.875 4.671875 -0.875 C 5.410156 -0.875 6.003906 -1.128906 6.453125 -1.640625 C 6.910156 -2.160156 7.140625 -2.90625 7.140625 -3.875 L 7.140625 -9.34375 L 8.28125 -9.34375 L 8.28125 -3.875 C 8.28125 -3.226562 8.195312 -2.65625 8.03125 -2.15625 C 7.863281 -1.65625 7.625 -1.234375 7.3125 -0.890625 C 7 -0.554688 6.617188 -0.300781 6.171875 -0.125 C 5.722656 0.0507812 5.222656 0.140625 4.671875 0.140625 Z M 4.671875 0.140625 "/></g></g></g><g fill="#f0f0f0" fill-opacity="1"><g transform="translate(107.411899, 14.219189)"><g><path d="M 1.140625 -9.34375 L 4.75 -9.34375 C 5.195312 -9.34375 5.597656 -9.273438 5.953125 -9.140625 C 6.316406 -9.015625 6.625 -8.828125 6.875 -8.578125 C 7.132812 -8.328125 7.332031 -8.03125 7.46875 -7.6875 C 7.613281 -7.34375 7.6875 -6.960938 7.6875 -6.546875 C 7.6875 -6.078125 7.609375 -5.675781 7.453125 -5.34375 C 7.296875 -5.007812 7.09375 -4.726562 6.84375 -4.5 C 6.59375 -4.269531 6.316406 -4.09375 6.015625 -3.96875 C 5.722656 -3.851562 5.429688 -3.773438 5.140625 -3.734375 L 7.8125 0 L 6.546875 0 L 3.875 -3.734375 L 2.265625 -3.734375 L 2.265625 0 L 1.140625 0 Z M 4.671875 -4.75 C 5.273438 -4.75 5.738281 -4.914062 6.0625 -5.25 C 6.382812 -5.582031 6.546875 -6.015625 6.546875 -6.546875 C 6.546875 -7.078125 6.382812 -7.507812 6.0625 -7.84375 C 5.738281 -8.175781 5.273438 -8.34375 4.671875 -8.34375 L 2.265625 -8.34375 L 2.265625 -4.75 Z M 4.671875 -4.75 "/></g></g></g></g></g></g></g></g></svg>