<?xml version="1.0" encoding="UTF-8" standalone="no"?>
<svg
   xmlns:dc="http://purl.org/dc/elements/1.1/"
   xmlns:cc="http://creativecommons.org/ns#"
   xmlns:rdf="http://www.w3.org/1999/02/22-rdf-syntax-ns#"
   xmlns:svg="http://www.w3.org/2000/svg"
   xmlns="http://www.w3.org/2000/svg"
   xmlns:xlink="http://www.w3.org/1999/xlink"
   id="svg8"
   version="1.1"
   viewBox="0 0 264.58334 55.613563"
   height="55.613564mm"
   width="264.58334mm">
  <title
     id="title907">Logo pro4media</title>
  <defs
     id="defs2">
    <linearGradient
       id="linearGradient5349">
      <stop
         id="stop5351"
         offset="0"
         style="stop-color:#ff7f2a;stop-opacity:1;" />
      <stop
         id="stop5353"
         offset="1"
         style="stop-color:#ff7f2a;stop-opacity:0;" />
    </linearGradient>
    <linearGradient
       y2="249.71875"
       x2="1173.8386"
       y1="252.8656"
       x1="585.50903"
       gradientUnits="userSpaceOnUse"
       id="linearGradient4305"
       xlink:href="#linearGradient5349" />
    <linearGradient
       y2="249.71875"
       x2="1173.8386"
       y1="252.8656"
       x1="585.50903"
       gradientUnits="userSpaceOnUse"
       id="linearGradient61"
       xlink:href="#linearGradient5349" />
  </defs>
  <metadata
     id="metadata5">
    <rdf:RDF>
      <cc:Work
         rdf:about="">
        <dc:format>image/svg+xml</dc:format>
        <dc:type
           rdf:resource="http://purl.org/dc/dcmitype/StillImage" />
        <dc:title>Logo pro4media</dc:title>
        <dc:creator>
          <cc:Agent>
            <dc:title>Alexander Glaubitz</dc:title>
          </cc:Agent>
        </dc:creator>
        <dc:publisher>
          <cc:Agent>
            <dc:title>pro4media</dc:title>
          </cc:Agent>
        </dc:publisher>
        <dc:subject>
          <rdf:Bag>
            <rdf:li>Online Marketing Agentur</rdf:li>
          </rdf:Bag>
        </dc:subject>
      </cc:Work>
    </rdf:RDF>
  </metadata>
  <g
     transform="translate(-2.2207874,-110.43599)"
     id="layer1">
    <g
       style="stroke-width:1.08799"
       id="g5100"
       transform="matrix(0.91912386,0,0,0.91912386,-56.919679,-48.780026)">
      <g
         id="g943">
        <g
           aria-label="4"
           transform="matrix(1.0676443,0,0,1.0271288,85.122514,35.218685)"
           id="flowRoot3032-37"
           style="font-style:normal;font-variant:normal;font-weight:normal;font-stretch:normal;font-size:80.8275px;line-height:0.01%;font-family:Orbitron;-inkscape-font-specification:'Orbitron, Normal';font-variant-ligatures:normal;font-variant-caps:normal;font-variant-numeric:normal;font-feature-settings:normal;text-align:start;letter-spacing:0px;word-spacing:0px;writing-mode:lr-tb;text-anchor:start;fill:url(#linearGradient4305);fill-opacity:1;stroke:none;stroke-width:0.840354">
          <path
             d="M 88.581854,193.01616 V 177.98225 H 48.006449 v -7.43613 l 39.76713,-35.80659 h 7.43613 v 36.61486 h 9.052681 v 6.62786 h -9.052681 v 15.03391 z M 56.493337,171.35439 h 32.088517 v -27.643 z"
             style="font-style:normal;font-variant:normal;font-weight:normal;font-stretch:normal;font-size:80.8275px;line-height:1.5;font-family:Orbitron;-inkscape-font-specification:'Orbitron, Normal';font-variant-ligatures:normal;font-variant-caps:normal;font-variant-numeric:normal;font-feature-settings:normal;text-align:start;writing-mode:lr-tb;text-anchor:start;fill:url(#linearGradient61);fill-opacity:1;stroke-width:0.840354"
             id="path909" />
        </g>
        <path
           style="color:#000000;display:inline;overflow:visible;visibility:visible;fill:#ff7f2a;fill-opacity:1;fill-rule:evenodd;stroke:none;stroke-width:0.315026;marker:none;enable-background:accumulate"
           d="m 208.52392,173.22585 c -6.95766,0 -12.55846,3.81717 -12.55846,8.55905 v 43.38902 c 0,4.74191 5.6008,8.55908 12.55846,8.55908 H 339.6414 c 6.95763,0 12.56772,-3.81717 12.56772,-8.55908 V 181.7849 c 0,-4.74188 -5.61009,-8.55905 -12.56772,-8.55905 z m 11.16816,5.14804 h 108.79038 c 5.77262,0 10.41748,3.172 10.41748,7.10628 v 35.99854 c 0,3.93422 -4.64486,7.1062 -10.41748,7.1062 H 219.69208 c -5.77258,0 -10.41744,-3.17198 -10.41744,-7.1062 v -35.99854 c 0,-3.93428 4.64486,-7.10628 10.41744,-7.10628 z"
           id="rect3063-2" />
        <g
           aria-label="media"
           id="text5329-0"
           style="font-style:normal;font-variant:normal;font-weight:normal;font-stretch:normal;font-size:37.8082px;line-height:0%;font-family:Orbitron;-inkscape-font-specification:'Orbitron, @wght=450';font-variant-ligatures:normal;font-variant-caps:normal;font-variant-numeric:normal;font-variant-east-asian:normal;font-variation-settings:'wght' 450;text-align:start;letter-spacing:0px;word-spacing:0px;writing-mode:lr-tb;text-anchor:start;fill:#6f7c91;fill-opacity:1;stroke:none;stroke-width:0.244815">
          <path
             d="m 215.4711,218.0349 v -21.92876 h 28.50738 q 1.96603,0 3.32713,1.3989 1.3989,1.39891 1.3989,3.32713 v 17.20273 h -3.55397 v -16.90027 q 0,-0.71835 -0.37808,-1.05863 -0.37808,-0.37808 -1.09644,-0.37808 h -8.3178 q -0.71836,0 -1.09644,0.37808 -0.34028,0.34028 -0.34028,1.05863 v 16.90027 h -3.62958 v -16.90027 q 0,-0.71835 -0.34028,-1.05863 -0.34027,-0.37808 -1.05863,-0.37808 h -8.35561 q -0.71836,0 -1.09644,0.37808 -0.34027,0.34028 -0.34027,1.05863 v 16.90027 z"
             style="font-style:normal;font-variant:normal;font-weight:normal;font-stretch:normal;font-size:37.8082px;line-height:1.25;font-family:Orbitron;-inkscape-font-specification:'Orbitron, @wght=450';font-variant-ligatures:normal;font-variant-caps:normal;font-variant-numeric:normal;font-variant-east-asian:normal;font-variation-settings:'wght' 450;text-align:start;writing-mode:lr-tb;text-anchor:start;stroke-width:0.244815"
             id="path912" />
          <path
             d="m 256.78424,218.0349 q -1.92822,0 -3.32712,-1.39891 -1.3989,-1.3989 -1.3989,-3.32712 v -12.4767 q 0,-1.92822 1.3989,-3.32713 1.3989,-1.3989 3.32712,-1.3989 h 12.81698 q 2.00384,0 3.36493,1.3989 1.3989,1.39891 1.3989,3.32713 v 8.05314 h -18.71506 v 4.1211 q 0,0.71835 0.34028,1.09643 0.37808,0.34028 1.09644,0.34028 h 17.27834 v 3.59178 z m -1.13425,-12.62794 h 15.12328 v -4.27233 q 0,-0.71835 -0.37808,-1.05863 -0.34027,-0.37808 -1.05863,-0.37808 h -12.24985 q -0.71836,0 -1.09644,0.37808 -0.34028,0.34028 -0.34028,1.05863 z"
             style="font-style:normal;font-variant:normal;font-weight:normal;font-stretch:normal;font-size:37.8082px;line-height:1.25;font-family:Orbitron;-inkscape-font-specification:'Orbitron, @wght=450';font-variant-ligatures:normal;font-variant-caps:normal;font-variant-numeric:normal;font-variant-east-asian:normal;font-variation-settings:'wght' 450;text-align:start;writing-mode:lr-tb;text-anchor:start;stroke-width:0.244815"
             id="path914" />
          <path
             d="m 281.90425,218.0349 q -1.96603,0 -3.36493,-1.39891 -1.39891,-1.3989 -1.39891,-3.32712 v -12.4767 q 0,-1.92822 1.39891,-3.32713 1.3989,-1.3989 3.36493,-1.3989 h 13.98903 v -7.18356 h 3.59178 v 29.11232 z m 0.30246,-3.59178 h 12.24986 q 0.71835,0 1.05863,-0.34028 0.37808,-0.37808 0.37808,-1.09643 v -11.87178 q 0,-0.71835 -0.37808,-1.05863 -0.34028,-0.37808 -1.05863,-0.37808 h -12.24986 q -0.71835,0 -1.09644,0.37808 -0.34027,0.34028 -0.34027,1.05863 v 11.87178 q 0,0.71835 0.34027,1.09643 0.37809,0.34028 1.09644,0.34028 z"
             style="font-style:normal;font-variant:normal;font-weight:normal;font-stretch:normal;font-size:37.8082px;line-height:1.25;font-family:Orbitron;-inkscape-font-specification:'Orbitron, @wght=450';font-variant-ligatures:normal;font-variant-caps:normal;font-variant-numeric:normal;font-variant-east-asian:normal;font-variation-settings:'wght' 450;text-align:start;writing-mode:lr-tb;text-anchor:start;stroke-width:0.244815"
             id="path916" />
          <path
             d="m 303.49155,218.0349 v -21.92876 h 3.59178 v 21.92876 z m 0,-25.52054 v -3.59178 h 3.59178 v 3.59178 z"
             style="font-style:normal;font-variant:normal;font-weight:normal;font-stretch:normal;font-size:37.8082px;line-height:1.25;font-family:Orbitron;-inkscape-font-specification:'Orbitron, @wght=450';font-variant-ligatures:normal;font-variant-caps:normal;font-variant-numeric:normal;font-variant-east-asian:normal;font-variation-settings:'wght' 450;text-align:start;writing-mode:lr-tb;text-anchor:start;stroke-width:0.244815"
             id="path918" />
          <path
             d="m 315.15892,218.0349 q -1.92821,0 -3.32712,-1.39891 -1.3989,-1.3989 -1.3989,-3.32712 v -8.05315 h 18.71506 v -4.12109 q 0,-0.71835 -0.37808,-1.05863 -0.34028,-0.37808 -1.05863,-0.37808 H 310.4329 v -3.59178 h 17.543 q 2.00384,0 3.36493,1.3989 1.39891,1.39891 1.39891,3.32713 v 17.20273 z m 0.30247,-3.59178 h 13.68657 v -5.70904 h -15.12328 v 4.27233 q 0,0.71835 0.34027,1.09643 0.37808,0.34028 1.09644,0.34028 z"
             style="font-style:normal;font-variant:normal;font-weight:normal;font-stretch:normal;font-size:37.8082px;line-height:1.25;font-family:Orbitron;-inkscape-font-specification:'Orbitron, @wght=450';font-variant-ligatures:normal;font-variant-caps:normal;font-variant-numeric:normal;font-variant-east-asian:normal;font-variation-settings:'wght' 450;text-align:start;writing-mode:lr-tb;text-anchor:start;stroke-width:0.244815"
             id="path920" />
        </g>
        <g
           aria-label="pro"
           id="text3843-62"
           style="font-style:normal;font-variant:normal;font-weight:normal;font-stretch:normal;font-size:37.8082px;line-height:0%;font-family:Orbitron;-inkscape-font-specification:'Orbitron, @wght=450';font-variant-ligatures:normal;font-variant-caps:normal;font-variant-numeric:normal;font-variant-east-asian:normal;font-variation-settings:'wght' 450;text-align:start;letter-spacing:0px;word-spacing:0px;writing-mode:lr-tb;text-anchor:start;fill:#6f7c91;fill-opacity:1;stroke:none;stroke-width:0.238293">
          <path
             d="M 64.344392,226.62394 V 195.9993 h 17.580814 q 1.966026,0 3.327122,1.3989 1.398903,1.39891 1.398903,3.32712 v 12.47671 q 0,1.92822 -1.398903,3.32712 -1.361096,1.3989 -3.327122,1.3989 H 67.936172 v 8.69589 z m 5.066299,-12.28766 h 12.249857 q 0.718356,0 1.05863,-0.34028 0.340274,-0.37808 0.340274,-1.09644 v -11.87177 q 0,-0.71836 -0.340274,-1.05863 -0.340274,-0.37808 -1.05863,-0.37808 H 69.410691 q -0.718355,0 -1.096437,0.37808 -0.378082,0.34027 -0.378082,1.05863 v 11.87177 q 0,0.71836 0.378082,1.09644 0.378082,0.34028 1.096437,0.34028 z"
             style="font-style:normal;font-variant:normal;font-weight:normal;font-stretch:normal;font-size:37.8082px;line-height:125%;font-family:Orbitron;-inkscape-font-specification:'Orbitron, @wght=450';font-variant-ligatures:normal;font-variant-caps:normal;font-variant-numeric:normal;font-variant-east-asian:normal;font-variation-settings:'wght' 450;text-align:start;writing-mode:lr-tb;text-anchor:start;fill:#6f7c91;fill-opacity:1;stroke:none;stroke-width:0.238293"
             id="path923" />
          <path
             d="m 89.375784,217.92805 v -17.20273 q 0,-1.92821 1.398903,-3.32712 1.398904,-1.3989 3.36493,-1.3989 h 12.249853 v 3.59178 H 94.404275 q -0.718356,0 -1.096438,0.37808 -0.340274,0.34027 -0.340274,1.05863 v 16.90026 z"
             style="font-style:normal;font-variant:normal;font-weight:normal;font-stretch:normal;font-size:37.8082px;line-height:125%;font-family:Orbitron;-inkscape-font-specification:'Orbitron, @wght=450';font-variant-ligatures:normal;font-variant-caps:normal;font-variant-numeric:normal;font-variant-east-asian:normal;font-variation-settings:'wght' 450;text-align:start;writing-mode:lr-tb;text-anchor:start;fill:#6f7c91;fill-opacity:1;stroke:none;stroke-width:0.238293"
             id="path925" />
          <path
             d="m 113.41117,217.92805 q -1.92822,0 -3.32712,-1.3989 -1.39891,-1.3989 -1.39891,-3.32712 v -12.47671 q 0,-1.92821 1.39891,-3.32712 1.3989,-1.3989 3.32712,-1.3989 h 12.81698 q 2.00383,0 3.36493,1.3989 1.3989,1.39891 1.3989,3.32712 v 12.47671 q 0,1.92822 -1.3989,3.32712 -1.3611,1.3989 -3.36493,1.3989 z m 0.30246,-3.59177 h 12.24986 q 0.71836,0 1.05863,-0.34028 0.37808,-0.37808 0.37808,-1.09644 v -11.87177 q 0,-0.71836 -0.37808,-1.05863 -0.34027,-0.37808 -1.05863,-0.37808 h -12.24986 q -0.71835,0 -1.09644,0.37808 -0.34027,0.34027 -0.34027,1.05863 v 11.87177 q 0,0.71836 0.34027,1.09644 0.37809,0.34028 1.09644,0.34028 z"
             style="font-style:normal;font-variant:normal;font-weight:normal;font-stretch:normal;font-size:37.8082px;line-height:125%;font-family:Orbitron;-inkscape-font-specification:'Orbitron, @wght=450';font-variant-ligatures:normal;font-variant-caps:normal;font-variant-numeric:normal;font-variant-east-asian:normal;font-variation-settings:'wght' 450;text-align:start;writing-mode:lr-tb;text-anchor:start;fill:#6f7c91;fill-opacity:1;stroke:none;stroke-width:0.238293"
             id="path927" />
        </g>
      </g>
    </g>
  </g>
</svg>
